<?xml version="1.0" standalone="no"?>
<!DOCTYPE svg PUBLIC "-//W3C//DTD SVG 20010904//EN"
 "http://www.w3.org/TR/2001/REC-SVG-20010904/DTD/svg10.dtd">
<svg version="1.0" xmlns="http://www.w3.org/2000/svg"
 width="512.000000pt" height="512.000000pt" viewBox="0 0 512.000000 512.000000"
 preserveAspectRatio="xMidYMid meet">
<metadata>
Created by potrace 1.14, written by Peter Selinger 2001-2017
</metadata>
<g transform="translate(0.000000,512.000000) scale(0.100000,-0.100000)"
fill="#000000" stroke="none">
<path d="M2835 5008 c-35 -12 -92 -52 -118 -82 -73 -86 -58 -266 29 -348 55
-52 121 -66 173 -38 52 27 19 90 -45 88 -43 -2 -67 22 -84 80 -16 58 -12 96
13 133 43 64 139 74 217 23 73 -49 110 -129 111 -245 1 -119 -21 -179 -144
-382 -109 -179 -157 -338 -157 -519 0 -106 15 -162 46 -177 27 -12 58 -2 67
22 3 7 3 53 2 103 -5 142 36 311 103 424 15 25 29 50 32 55 3 6 22 35 42 66
98 149 142 272 140 394 -1 39 -4 81 -7 95 -14 72 -19 89 -41 132 -30 59 -94
122 -159 156 -55 29 -165 38 -220 20z"/>
<path d="M2190 4654 c-217 -66 -278 -239 -165 -465 29 -57 93 -153 135 -203
148 -176 330 -346 371 -346 26 0 54 45 43 70 -5 10 -54 65 -109 122 -152 157
-241 269 -305 383 l-33 60 34 -31 c46 -43 71 -54 119 -54 111 0 230 130 230
251 0 150 -165 260 -320 213z m134 -128 c37 -15 66 -59 66 -99 0 -30 -53 -104
-85 -119 -49 -22 -95 14 -95 77 0 47 -52 72 -84 40 -11 -11 -14 -30 -12 -61 2
-28 0 -41 -5 -33 -17 27 -10 102 13 135 41 60 135 88 202 60z"/>
<path d="M2338 3525 c-2 -2 -46 -6 -98 -9 -161 -11 -436 -47 -527 -70 -13 -3
-31 -8 -40 -10 -61 -14 -83 -20 -128 -33 -218 -66 -421 -167 -518 -258 -68
-64 -98 -182 -92 -355 2 -63 6 -126 9 -140 2 -14 7 -38 9 -55 5 -31 23 -130
32 -175 3 -14 7 -36 10 -50 3 -14 9 -41 15 -60 15 -53 13 -70 -10 -70 -38 0
-274 -92 -385 -149 -243 -127 -396 -269 -475 -445 -42 -91 -65 -198 -64 -291
2 -147 22 -218 109 -379 90 -167 143 -240 246 -330 178 -157 562 -316 1006
-415 113 -25 146 -32 228 -47 62 -11 165 -26 197 -30 21 -2 50 -6 65 -9 16 -3
60 -7 98 -11 39 -3 81 -7 95 -10 137 -22 849 -22 1035 1 17 2 62 6 100 10 39
3 79 8 90 11 11 2 38 6 60 8 340 37 784 183 1035 339 66 42 161 110 191 137
137 126 178 174 259 305 115 183 156 295 159 435 5 219 -118 438 -344 608 -33
25 -63 48 -68 52 -4 3 6 33 21 66 28 58 49 112 56 150 3 10 9 39 14 64 25 112
10 264 -35 380 -75 191 -230 281 -475 276 -62 -1 -120 -6 -129 -10 -13 -6 -22
6 -44 61 -44 112 -111 188 -232 266 -115 73 -320 149 -473 173 -19 3 -54 10
-78 15 -24 5 -62 12 -85 15 -23 2 -56 7 -73 9 -46 6 -153 16 -209 21 -63 5
-553 13 -557 9z m2012 -870 c54 -28 105 -108 118 -186 13 -77 -14 -224 -54
-287 -14 -21 -16 -22 -52 -6 -58 25 -222 82 -269 94 -47 12 -50 21 -33 95 5
22 12 76 16 120 4 44 8 91 9 105 2 14 3 32 4 41 1 17 77 45 136 51 34 4 88 -8
125 -27z"/>
</g>
</svg>
